<svg id="svg" version="1.1" xmlns="http://www.w3.org/2000/svg" xmlns:xlink="http://www.w3.org/1999/xlink" width="400" height="327.741935483871" viewBox="0, 0, 400,327.741935483871"><g id="svgg"><path id="path0" d="M74.448 84.516 C 83.519 111.344,83.852 129.544,75.506 142.445 C 74.144 144.550,74.127 144.456,76.082 145.757 C 77.454 146.671,91.062 156.150,96.516 159.992 C 97.865 160.941,99.694 162.207,100.581 162.804 L 102.194 163.890 102.193 161.881 C 102.187 148.193,96.729 129.222,86.929 108.820 C 82.334 99.254,73.835 82.705,74.448 84.516 M338.166 91.017 C 321.164 124.002,314.966 141.757,314.155 159.806 C 313.974 163.834,314.020 163.992,315.126 163.138 C 315.465 162.877,317.890 161.173,320.516 159.351 C 323.142 157.529,326.053 155.507,326.984 154.858 C 327.916 154.209,331.655 151.606,335.294 149.074 L 341.910 144.470 340.659 142.474 C 332.448 129.372,332.725 108.158,341.406 85.327 C 342.048 83.638,341.219 85.093,338.166 91.017 M47.871 101.829 C 39.639 107.576,32.356 112.662,31.687 113.129 L 30.470 113.978 36.719 118.335 C 40.156 120.731,44.652 123.866,46.710 125.302 C 48.768 126.738,53.181 129.814,56.516 132.137 C 59.852 134.459,63.970 137.329,65.668 138.514 C 69.209 140.985,68.874 141.093,69.519 137.277 C 71.144 127.678,70.420 116.642,67.363 104.387 C 66.273 100.018,63.446 91.353,63.115 91.366 C 62.963 91.373,56.103 96.081,47.871 101.829 M351.948 94.129 C 346.160 110.940,344.083 131.421,347.288 140.084 C 347.480 140.604,348.004 140.287,354.777 135.547 C 358.782 132.745,363.599 129.384,365.481 128.080 C 367.363 126.776,372.503 123.196,376.903 120.125 C 381.303 117.055,385.077 114.441,385.290 114.318 C 385.816 114.013,385.645 113.863,381.548 111.040 C 379.703 109.768,372.579 104.819,365.716 100.041 C 358.854 95.264,353.163 91.355,353.071 91.355 C 352.978 91.355,352.473 92.603,351.948 94.129 " stroke="none" fill="#2b2f74" fill-rule="evenodd"></path><path id="path1" d="M138.075 38.452 C 138.060 38.665,137.965 39.710,137.863 40.774 C 137.618 43.334,137.632 52.782,137.887 56.516 C 138.091 59.512,138.152 60.111,138.430 61.870 C 138.514 62.403,138.638 63.447,138.706 64.190 C 138.774 64.933,138.898 65.920,138.981 66.383 C 139.064 66.847,139.175 67.516,139.227 67.871 C 139.659 70.831,141.382 79.072,142.734 84.645 C 142.854 85.142,142.961 85.634,142.970 85.738 C 142.980 85.843,143.153 86.394,143.354 86.964 C 143.555 87.534,143.662 88.000,143.592 88.000 C 143.523 88.000,143.581 88.216,143.723 88.481 C 143.864 88.745,144.045 89.355,144.125 89.835 C 144.205 90.316,144.371 91.000,144.496 91.355 C 144.620 91.710,144.920 92.697,145.163 93.548 C 146.183 97.118,148.567 104.876,148.891 105.677 C 149.006 105.961,149.442 107.239,149.860 108.516 C 151.030 112.091,154.145 120.810,155.485 124.258 C 156.593 127.113,157.309 129.033,159.474 134.968 C 159.915 136.174,160.671 138.148,161.156 139.355 C 161.641 140.561,162.523 142.884,163.117 144.516 C 163.711 146.148,164.336 147.832,164.507 148.258 C 164.678 148.684,164.962 149.439,165.138 149.935 C 165.315 150.432,165.981 152.290,166.619 154.065 C 167.767 157.257,168.882 160.579,170.819 166.581 C 176.826 185.189,178.036 200.702,174.319 211.470 C 173.939 212.572,173.726 213.568,173.846 213.683 C 173.966 213.799,177.897 216.564,182.581 219.827 C 187.265 223.091,191.776 226.243,192.606 226.833 C 193.436 227.423,194.154 227.867,194.202 227.820 C 195.755 226.266,197.591 213.815,197.333 206.581 C 196.621 186.612,190.155 168.500,169.921 129.806 C 167.618 125.403,162.813 116.242,159.091 109.161 C 144.544 81.485,138.724 62.283,138.563 41.432 C 138.547 39.476,138.164 37.131,138.075 38.452 M277.594 43.290 C 276.749 65.510,271.508 81.960,255.745 111.871 C 254.922 113.432,251.851 119.297,248.921 124.903 C 245.991 130.510,243.485 135.293,243.352 135.533 C 225.784 167.344,217.190 195.417,219.103 214.747 C 219.536 219.116,221.036 225.996,221.888 227.519 C 222.068 227.841,224.746 226.093,232.387 220.663 C 233.523 219.856,236.285 217.932,238.525 216.388 C 241.618 214.256,242.557 213.483,242.424 213.177 C 237.246 201.196,239.334 183.148,249.115 155.355 C 251.164 149.530,251.772 147.890,257.284 133.290 C 274.107 88.731,279.556 65.231,278.332 42.516 C 278.075 37.748,277.794 38.043,277.594 43.290 M113.602 76.645 C 113.676 76.858,114.343 78.948,115.085 81.290 C 117.149 87.811,121.562 100.514,123.468 105.419 C 124.246 107.423,125.167 109.858,126.542 113.548 C 127.044 114.897,128.319 118.265,129.374 121.032 C 130.430 123.800,131.474 126.587,131.694 127.226 C 131.915 127.865,132.841 130.419,133.752 132.903 C 135.204 136.860,138.552 146.770,138.679 147.484 C 138.704 147.626,138.815 147.887,138.926 148.065 C 139.037 148.242,139.063 148.387,138.985 148.387 C 138.907 148.387,139.015 148.823,139.225 149.355 C 142.183 156.856,144.833 176.942,143.642 182.839 C 143.556 183.265,143.312 184.658,143.100 185.935 C 142.756 188.004,142.306 189.781,141.821 190.986 C 141.700 191.286,142.313 191.842,144.184 193.127 C 145.573 194.082,148.103 195.840,149.806 197.034 C 151.510 198.227,153.832 199.841,154.968 200.620 C 156.103 201.399,157.916 202.653,158.997 203.405 C 163.715 206.693,164.891 207.484,165.061 207.484 C 165.341 207.484,164.960 198.995,164.504 195.097 C 163.259 184.438,159.645 171.817,154.194 159.097 C 149.947 149.186,137.001 123.442,136.438 123.790 C 136.295 123.879,136.257 123.823,136.355 123.665 C 136.531 123.380,134.347 118.803,132.267 115.097 C 129.555 110.262,120.260 91.847,118.396 87.613 C 117.833 86.335,117.152 84.804,116.881 84.210 C 116.610 83.615,115.796 81.641,115.071 79.823 C 114.346 78.004,113.688 76.458,113.609 76.387 C 113.531 76.316,113.527 76.432,113.602 76.645 M301.031 80.188 C 299.233 84.974,292.381 99.190,286.568 110.194 C 285.481 112.252,283.250 116.490,281.610 119.613 C 279.971 122.735,278.110 126.277,277.475 127.484 C 262.950 155.096,256.100 171.849,252.939 187.484 C 251.323 195.482,250.453 207.848,251.548 207.259 C 251.797 207.126,255.368 204.665,259.484 201.791 C 263.600 198.917,267.897 195.927,269.032 195.146 C 271.891 193.182,274.323 191.450,274.323 191.379 C 274.323 191.346,274.138 190.699,273.913 189.941 C 271.164 180.682,271.865 167.500,275.883 152.903 C 278.434 143.634,280.496 137.643,288.185 117.161 C 295.718 97.094,301.944 79.406,301.597 79.059 C 301.540 79.003,301.286 79.510,301.031 80.188 M204.774 89.560 C 189.756 93.324,184.574 112.401,195.595 123.351 C 208.463 136.137,229.677 127.159,229.677 108.928 C 229.677 95.978,217.368 86.405,204.774 89.560 M334.540 120.645 C 334.541 121.781,334.586 122.213,334.641 121.606 C 334.695 120.999,334.695 120.070,334.639 119.542 C 334.584 119.013,334.539 119.510,334.540 120.645 M265.419 246.555 C 263.192 247.617,261.876 249.132,260.018 252.774 C 259.366 254.052,258.373 255.735,257.810 256.516 C 257.248 257.297,256.784 258.226,256.780 258.581 C 256.775 258.935,255.903 261.064,254.841 263.310 C 252.100 269.108,251.355 270.033,251.355 267.636 C 251.355 266.938,251.176 265.458,250.958 264.345 C 250.740 263.233,250.443 261.219,250.298 259.871 C 250.153 258.523,249.944 256.579,249.834 255.551 C 249.717 254.459,249.463 253.494,249.224 253.228 C 248.999 252.979,248.776 252.378,248.730 251.894 C 248.657 251.134,248.294 250.721,246.065 248.861 C 242.983 246.290,242.918 246.254,242.434 246.871 C 241.014 248.679,240.720 251.193,241.412 255.604 C 241.654 257.147,241.782 258.884,241.697 259.463 C 241.612 260.042,241.718 261.852,241.933 263.484 C 242.148 265.116,242.442 267.555,242.586 268.903 C 243.053 273.266,244.522 278.732,245.963 281.471 C 246.468 282.432,246.704 283.197,246.623 283.612 C 246.451 284.483,242.645 295.766,241.921 297.548 C 239.693 303.036,239.944 308.527,242.547 311.231 C 245.682 314.486,247.225 313.421,249.281 306.581 C 250.299 303.194,250.347 303.056,251.451 300.387 C 251.951 299.181,252.493 297.613,252.657 296.903 C 252.821 296.194,253.189 295.032,253.477 294.323 C 253.764 293.613,254.169 292.510,254.377 291.871 C 254.585 291.232,255.094 290.026,255.507 289.190 C 255.920 288.353,256.258 287.538,256.258 287.377 C 256.258 286.923,257.801 283.028,258.145 282.613 C 258.313 282.410,258.470 282.000,258.494 281.702 C 258.517 281.405,259.020 279.884,259.613 278.323 C 260.205 276.761,260.949 274.786,261.266 273.933 C 261.583 273.080,262.024 272.093,262.245 271.739 C 262.467 271.386,262.727 270.760,262.823 270.348 C 262.919 269.936,263.317 269.297,263.708 268.928 C 264.100 268.560,264.574 267.702,264.762 267.023 C 264.950 266.344,265.492 265.298,265.965 264.700 C 266.439 264.102,266.891 263.323,266.972 262.968 C 267.052 262.613,267.544 261.742,268.066 261.032 L 269.015 259.742 269.218 260.774 C 269.436 261.883,270.017 266.248,270.465 270.142 C 270.838 273.383,272.305 278.632,273.558 281.204 L 274.584 283.311 273.554 286.107 C 272.988 287.645,271.991 290.587,271.338 292.645 C 270.686 294.703,269.937 296.868,269.673 297.456 C 266.771 303.942,268.075 311.135,272.455 312.800 C 274.321 313.509,276.266 310.242,277.772 303.871 C 277.839 303.587,278.353 302.310,278.915 301.032 C 279.476 299.755,280.173 297.764,280.464 296.609 C 280.755 295.453,281.222 294.059,281.502 293.510 C 281.782 292.962,282.151 291.993,282.322 291.358 C 282.493 290.722,282.895 289.678,283.216 289.037 C 283.537 288.395,284.061 287.058,284.381 286.065 C 284.700 285.071,285.249 283.755,285.600 283.141 C 285.952 282.527,286.177 281.962,286.102 281.887 C 286.027 281.812,286.204 281.153,286.497 280.423 C 286.789 279.694,287.138 278.690,287.272 278.194 C 287.406 277.697,287.842 276.594,288.241 275.742 C 288.640 274.890,289.087 273.845,289.235 273.419 C 290.103 270.923,291.061 269.008,291.555 268.783 C 291.917 268.619,292.159 268.200,292.269 267.547 C 292.361 267.004,292.846 265.955,293.347 265.215 C 293.848 264.476,294.462 263.406,294.711 262.839 C 294.961 262.271,295.773 260.994,296.516 260.000 C 298.621 257.185,298.987 256.138,298.886 253.227 C 298.841 251.949,298.747 251.774,297.201 250.089 C 296.050 248.835,295.466 247.953,295.232 247.120 C 294.847 245.742,294.882 245.752,293.095 246.542 C 291.253 247.357,289.292 249.577,287.934 252.387 C 287.351 253.594,286.315 255.383,285.631 256.363 C 284.947 257.343,284.387 258.412,284.387 258.737 C 284.387 259.881,280.002 268.903,279.447 268.903 C 279.207 268.903,279.042 268.236,279.000 267.097 C 278.981 266.600,278.794 265.148,278.584 263.871 C 278.085 260.844,277.673 257.608,277.499 255.355 C 277.411 254.212,277.228 253.473,277.002 253.342 C 276.806 253.229,276.645 252.750,276.645 252.278 C 276.645 251.328,276.012 250.649,272.568 247.908 C 270.463 246.233,270.317 246.240,269.395 248.047 C 269.119 248.589,268.789 249.032,268.663 249.032 C 268.375 249.032,267.355 246.956,267.355 246.370 C 267.355 245.787,266.952 245.825,265.419 246.555 M194.065 246.580 C 191.220 247.071,184.672 249.364,183.742 250.195 C 183.529 250.385,183.006 250.618,182.581 250.712 C 182.155 250.806,180.413 251.599,178.710 252.472 C 177.006 253.346,174.336 254.700,172.775 255.482 C 169.316 257.214,169.026 257.629,169.079 260.774 C 169.099 261.910,169.071 262.955,169.017 263.097 C 168.934 263.319,169.601 264.833,171.324 268.334 C 171.574 268.843,172.001 269.245,172.387 269.337 C 173.962 269.712,173.941 270.548,172.178 277.780 C 171.873 279.033,171.257 279.198,170.453 278.242 C 168.562 275.995,164.645 279.812,164.645 283.901 C 164.645 286.491,166.134 290.982,167.381 292.153 C 168.136 292.863,168.141 293.174,167.458 296.980 C 166.123 304.416,168.333 310.968,172.176 310.968 C 173.721 310.968,175.322 306.587,174.757 303.906 C 174.488 302.629,174.996 299.499,175.565 298.930 C 175.662 298.832,175.745 298.453,175.750 298.086 C 175.787 294.909,177.841 291.849,179.623 292.315 C 179.868 292.379,180.428 292.246,180.866 292.019 C 181.304 291.793,183.700 291.089,186.189 290.456 C 188.678 289.824,190.917 289.200,191.164 289.070 C 191.411 288.940,191.967 288.863,192.400 288.899 C 193.160 288.962,193.235 288.867,194.580 286.148 C 196.319 282.632,196.319 281.329,194.582 279.355 C 194.333 279.071,194.051 278.403,193.956 277.871 L 193.783 276.903 191.779 276.903 C 190.633 276.903,188.952 277.117,187.855 277.402 C 181.140 279.145,180.162 278.854,181.244 275.435 C 181.460 274.752,181.716 273.497,181.812 272.645 C 181.907 271.794,182.130 270.748,182.307 270.323 C 182.483 269.897,182.777 268.387,182.960 266.968 C 183.342 264.003,183.478 263.817,186.323 262.348 C 190.304 260.292,199.610 258.232,202.459 258.777 C 202.832 258.848,203.306 258.739,203.557 258.523 C 203.801 258.314,204.197 258.073,204.438 257.988 C 205.851 257.488,205.596 253.995,203.972 251.613 C 200.027 245.824,199.627 245.621,194.065 246.580 M100.664 247.007 C 100.373 247.319,100.067 247.989,99.984 248.497 C 99.427 251.886,98.075 258.388,96.732 264.129 C 95.869 267.819,95.001 271.652,94.802 272.645 C 94.603 273.639,94.089 275.857,93.660 277.574 C 93.231 279.292,92.841 281.150,92.795 281.703 C 92.749 282.257,92.477 283.639,92.190 284.774 C 90.169 292.780,90.351 299.138,92.791 305.854 C 95.012 311.963,98.150 312.790,105.741 309.267 C 107.470 308.465,108.834 308.026,110.179 307.839 C 111.247 307.690,112.198 307.521,112.292 307.463 C 112.784 307.159,117.145 307.341,118.009 307.702 C 118.681 307.983,119.182 308.031,119.744 307.870 C 120.519 307.648,122.042 309.283,122.060 310.356 C 122.089 312.105,125.509 313.548,128.129 312.917 C 132.112 311.958,138.064 311.491,146.374 311.487 C 156.262 311.483,160.760 310.981,164.194 309.500 C 165.934 308.750,165.394 305.580,163.447 305.119 C 162.706 304.944,162.367 304.664,161.933 303.866 C 161.356 302.805,159.495 301.646,157.811 301.300 C 152.967 300.305,134.246 299.960,131.101 300.809 C 129.651 301.201,124.771 301.675,124.204 301.479 C 124.032 301.420,123.813 300.685,123.718 299.844 C 123.522 298.105,122.914 297.404,120.351 295.957 C 119.570 295.517,118.686 294.823,118.385 294.417 C 118.019 293.922,117.609 293.677,117.144 293.677 C 116.763 293.677,116.303 293.500,116.123 293.283 C 115.474 292.501,107.302 293.403,105.032 294.507 C 103.830 295.092,102.971 295.327,102.000 295.339 L 100.646 295.355 100.645 294.316 C 100.645 292.066,101.240 288.654,102.597 283.134 C 103.377 279.961,104.119 276.710,104.247 275.908 C 104.374 275.107,104.725 273.639,105.027 272.645 C 105.328 271.652,105.729 270.026,105.918 269.032 C 106.107 268.039,106.731 265.426,107.304 263.226 C 107.878 261.026,108.424 258.733,108.518 258.130 C 108.613 257.528,108.796 256.969,108.926 256.889 C 110.261 256.064,107.816 249.032,106.193 249.032 C 105.541 249.032,103.664 248.170,102.581 247.372 C 101.306 246.434,101.214 246.416,100.664 247.007 M337.144 247.935 C 337.050 248.468,336.838 249.658,336.671 250.581 C 336.417 251.992,336.440 252.627,336.814 254.581 C 337.431 257.800,337.425 258.852,336.786 259.019 C 336.005 259.223,335.849 261.064,336.342 264.256 C 337.371 270.914,337.544 280.501,336.659 281.897 C 336.465 282.202,336.233 283.206,336.144 284.129 C 335.935 286.274,334.541 293.900,334.029 295.699 C 333.187 298.659,334.435 307.480,336.010 309.691 C 337.277 311.471,337.700 311.441,340.823 309.352 C 342.359 308.325,344.951 306.614,346.582 305.551 C 358.949 297.494,364.939 289.333,364.672 280.903 C 364.415 272.802,361.163 265.975,353.914 258.323 C 353.040 257.400,351.942 256.202,351.475 255.660 C 351.008 255.118,349.977 254.345,349.184 253.942 C 348.391 253.540,346.348 252.311,344.645 251.212 C 337.545 246.631,337.385 246.561,337.144 247.935 M71.861 247.806 C 70.663 251.823,66.371 258.262,65.105 257.944 C 63.176 257.460,62.038 259.030,60.427 264.397 C 60.002 265.811,59.285 267.955,58.832 269.161 C 58.379 270.368,57.919 271.994,57.810 272.774 C 57.700 273.555,57.258 275.297,56.826 276.645 C 52.750 289.393,49.806 299.663,49.806 301.138 C 49.806 301.520,49.691 301.948,49.549 302.089 C 49.379 302.260,49.465 302.686,49.807 303.357 C 50.091 303.913,50.323 304.841,50.323 305.419 C 50.323 307.703,52.594 310.782,54.139 310.594 C 55.551 310.421,56.258 310.041,56.258 309.453 C 56.258 309.198,56.718 308.620,57.279 308.169 C 58.383 307.282,58.835 306.175,58.837 304.354 C 58.840 302.651,60.110 296.976,60.661 296.204 C 60.947 295.805,61.161 295.081,61.161 294.519 C 61.161 293.872,61.329 293.391,61.650 293.116 C 61.939 292.868,62.209 292.183,62.312 291.433 C 62.658 288.919,63.197 289.049,63.400 291.695 C 63.469 292.601,63.785 293.848,64.131 294.581 C 64.465 295.290,64.801 296.074,64.877 296.323 C 65.159 297.239,68.549 297.009,71.927 295.844 C 73.611 295.264,74.915 294.965,75.539 295.016 L 76.516 295.097 76.593 296.579 C 76.716 298.929,76.038 300.165,74.085 301.151 C 72.209 302.098,72.218 302.029,73.677 304.285 C 74.666 305.813,74.839 306.276,74.839 307.391 C 74.839 308.601,74.927 308.789,75.988 309.835 C 77.709 311.531,79.126 311.301,81.485 308.942 C 84.826 305.602,85.907 301.054,85.170 293.440 L 84.935 291.009 86.335 289.609 C 87.614 288.330,89.806 284.633,89.806 283.756 C 89.806 283.340,87.481 280.887,86.895 280.685 C 86.642 280.597,86.235 280.068,85.991 279.508 L 85.548 278.491 84.516 278.854 C 82.641 279.515,82.622 279.478,81.820 273.806 C 81.550 271.890,81.137 268.987,80.903 267.355 C 80.669 265.723,80.378 262.935,80.258 261.161 C 80.137 259.387,79.914 257.181,79.763 256.258 C 79.612 255.335,79.487 254.046,79.486 253.393 C 79.482 251.312,78.701 250.540,74.801 248.767 C 73.857 248.339,72.943 247.816,72.769 247.607 C 72.326 247.073,72.063 247.131,71.861 247.806 M219.341 248.065 C 216.919 254.128,213.994 258.329,212.460 257.945 C 211.107 257.605,208.516 260.643,208.516 262.569 C 208.516 262.990,206.646 268.775,206.033 270.250 C 205.695 271.062,205.419 272.100,205.419 272.557 C 205.419 273.284,204.151 277.618,201.514 285.901 C 199.606 291.896,197.419 299.946,197.419 300.976 C 197.419 301.447,197.301 301.951,197.156 302.096 C 196.976 302.276,197.049 302.724,197.386 303.503 C 197.657 304.131,197.958 305.312,198.055 306.126 C 198.193 307.291,198.422 307.837,199.126 308.680 C 199.619 309.270,200.137 309.968,200.278 310.231 C 200.719 311.055,203.613 310.550,203.613 309.649 C 203.613 309.394,204.074 308.815,204.637 308.362 C 205.754 307.465,206.061 306.743,206.328 304.387 C 206.643 301.609,207.699 297.034,208.221 296.185 C 208.557 295.638,208.683 295.104,208.589 294.620 C 208.479 294.055,208.596 293.747,209.094 293.285 C 209.570 292.844,209.790 292.302,209.921 291.249 C 210.211 288.931,211.091 289.745,211.095 292.335 C 211.097 293.548,212.400 296.476,213.032 296.691 C 214.389 297.151,216.905 296.840,219.391 295.904 C 223.492 294.360,224.401 294.582,224.200 297.082 C 224.011 299.442,223.551 300.162,221.581 301.183 L 219.915 302.047 220.595 303.217 C 220.969 303.861,221.547 304.791,221.880 305.285 C 222.336 305.964,222.468 306.479,222.419 307.395 C 222.292 309.792,224.994 311.616,227.043 310.516 C 231.576 308.082,233.726 301.690,232.726 293.618 L 232.415 291.106 233.772 289.747 C 235.196 288.318,236.284 286.602,237.018 284.624 L 237.456 283.442 236.185 282.172 C 235.486 281.474,234.609 280.696,234.237 280.444 C 233.864 280.191,233.469 279.650,233.360 279.242 L 233.161 278.500 232.040 278.881 C 230.548 279.388,230.339 279.261,229.992 277.639 C 229.323 274.512,228.023 264.510,227.481 258.323 C 226.806 250.614,226.863 250.730,222.917 249.047 C 221.825 248.582,220.733 247.981,220.490 247.713 C 219.886 247.046,219.728 247.094,219.341 248.065 M313.919 249.194 C 310.988 255.676,309.341 257.905,307.440 257.968 C 306.897 257.986,306.241 258.052,305.984 258.115 C 305.337 258.272,304.256 260.654,302.961 264.779 C 302.360 266.693,301.536 269.103,301.128 270.136 C 300.721 271.168,300.387 272.364,300.387 272.793 C 300.387 273.222,299.912 275.106,299.332 276.980 C 298.751 278.854,297.752 282.071,297.112 284.129 C 294.919 291.175,292.885 298.451,292.653 300.082 C 292.526 300.979,292.300 301.859,292.151 302.038 C 291.959 302.270,292.020 302.636,292.368 303.317 C 292.635 303.841,292.935 304.964,293.033 305.812 C 293.149 306.809,293.428 307.650,293.825 308.193 C 294.162 308.655,294.702 309.408,295.025 309.868 C 295.868 311.066,298.329 310.883,298.736 309.591 C 298.832 309.284,299.404 308.568,300.005 308.000 C 301.031 307.032,301.110 306.856,301.278 305.161 C 301.567 302.259,302.729 296.960,303.232 296.252 C 303.501 295.873,303.682 295.188,303.666 294.615 C 303.646 293.897,303.786 293.512,304.182 293.201 C 304.550 292.912,304.782 292.343,304.901 291.432 C 305.046 290.329,305.787 288.932,305.814 289.710 C 306.063 296.731,308.635 298.323,315.333 295.602 C 316.400 295.168,317.326 294.968,318.028 295.019 L 319.097 295.097 319.097 297.078 C 319.097 299.464,318.706 300.130,316.705 301.154 C 315.968 301.530,315.292 301.912,315.203 302.001 C 315.113 302.091,315.598 303.071,316.280 304.179 C 317.314 305.859,317.522 306.408,317.534 307.484 C 317.575 311.231,321.619 311.976,324.333 308.737 C 327.617 304.818,328.585 300.467,327.732 293.454 L 327.449 291.121 328.849 289.721 C 331.728 286.842,332.906 283.834,331.649 282.577 C 331.203 282.131,330.839 281.654,330.839 281.515 C 330.839 281.377,330.424 281.091,329.918 280.879 C 329.290 280.617,328.878 280.210,328.624 279.602 C 328.222 278.640,327.725 278.493,326.600 279.006 C 325.011 279.730,324.205 275.494,322.354 256.689 C 321.776 250.809,321.837 250.923,318.270 249.161 C 316.833 248.452,315.473 247.712,315.248 247.517 C 314.885 247.202,314.734 247.393,313.919 249.194 M344.112 262.944 C 344.805 263.583,346.885 264.858,348.516 265.643 C 349.226 265.985,350.498 266.858,351.344 267.584 C 352.189 268.310,353.035 268.903,353.224 268.903 C 353.412 268.903,353.796 269.439,354.077 270.093 C 354.357 270.748,355.285 272.251,356.139 273.434 C 358.418 276.591,358.578 277.073,357.941 278.884 C 356.808 282.108,354.440 284.913,350.930 287.189 C 350.028 287.773,349.058 288.609,348.774 289.046 C 348.490 289.482,347.879 290.001,347.417 290.198 C 346.954 290.395,345.955 290.968,345.197 291.472 C 342.664 293.152,342.776 293.513,343.490 285.935 C 343.762 283.051,343.861 273.496,343.639 271.672 C 342.450 261.935,342.477 261.434,344.112 262.944 M72.633 274.357 C 74.132 283.454,74.366 282.472,70.535 283.190 C 64.425 284.334,64.498 284.384,66.213 280.183 C 68.258 275.174,68.195 275.310,71.077 269.718 C 71.687 268.534,71.661 268.456,72.633 274.357 M219.462 269.742 C 219.815 271.488,220.897 278.146,221.307 281.092 C 221.519 282.620,221.385 282.686,216.582 283.411 C 213.175 283.925,212.208 283.896,212.473 283.288 C 212.549 283.112,213.199 281.516,213.917 279.742 C 215.398 276.082,218.808 269.161,219.131 269.161 C 219.249 269.161,219.398 269.423,219.462 269.742 M314.581 269.787 C 314.581 270.131,314.698 270.973,314.840 271.658 C 315.249 273.617,316.077 278.926,316.267 280.807 L 316.440 282.516 315.188 282.807 C 311.582 283.642,307.613 284.026,307.613 283.539 C 307.613 282.931,310.482 276.039,311.933 273.161 C 312.720 271.600,313.493 270.062,313.650 269.744 C 314.029 268.977,314.581 269.002,314.581 269.787 " stroke="none" fill="#05a099" fill-rule="evenodd"></path><path id="path2" d="M138.382 37.677 C 138.382 38.174,138.436 38.377,138.500 38.129 C 138.565 37.881,138.565 37.474,138.500 37.226 C 138.436 36.977,138.382 37.181,138.382 37.677 M278.534 46.194 C 278.534 47.116,278.581 47.494,278.638 47.032 C 278.696 46.571,278.696 45.816,278.638 45.355 C 278.581 44.894,278.534 45.271,278.534 46.194 M278.534 51.097 C 278.534 52.019,278.581 52.397,278.638 51.935 C 278.696 51.474,278.696 50.719,278.638 50.258 C 278.581 49.797,278.534 50.174,278.534 51.097 M89.681 76.065 C 89.784 76.313,90.271 77.619,90.762 78.968 C 92.109 82.664,92.349 83.254,92.369 82.920 C 92.379 82.752,92.259 82.287,92.101 81.888 C 91.456 80.247,91.358 79.688,91.742 79.835 C 92.041 79.950,92.054 79.861,91.818 79.342 C 91.660 78.994,91.433 78.710,91.313 78.710 C 91.194 78.710,91.126 78.620,91.161 78.511 C 91.265 78.192,90.268 76.129,90.010 76.129 C 89.881 76.129,89.848 76.013,89.935 75.871 C 90.023 75.729,89.960 75.613,89.794 75.613 C 89.608 75.613,89.565 75.785,89.681 76.065 M325.162 77.933 C 324.577 79.097,324.221 79.973,324.372 79.880 C 324.525 79.786,324.650 79.917,324.657 80.178 C 324.664 80.483,324.785 80.377,325.004 79.871 C 325.210 79.395,325.244 79.034,325.092 78.934 C 324.948 78.840,324.977 78.728,325.162 78.667 C 325.485 78.559,326.527 76.118,326.333 75.924 C 326.274 75.865,325.747 76.770,325.162 77.933 M92.387 80.829 C 92.387 81.230,93.750 83.871,93.957 83.871 C 94.089 83.871,93.828 83.203,93.376 82.387 C 92.475 80.760,92.387 80.621,92.387 80.829 M322.200 83.600 C 321.984 84.019,321.806 84.451,321.806 84.561 C 321.806 84.825,322.450 83.865,322.659 83.290 C 322.919 82.572,322.631 82.767,322.200 83.600 M95.148 86.323 C 95.774 87.529,96.337 88.516,96.399 88.516 C 96.462 88.516,96.023 87.529,95.424 86.323 C 94.826 85.116,94.263 84.129,94.173 84.129 C 94.083 84.129,94.521 85.116,95.148 86.323 M320.645 86.710 C 320.145 87.703,319.794 88.516,319.864 88.516 C 319.935 88.516,320.403 87.703,320.903 86.710 C 321.404 85.716,321.755 84.903,321.684 84.903 C 321.613 84.903,321.146 85.716,320.645 86.710 M93.827 87.226 C 94.075 88.162,94.436 88.776,94.435 88.258 C 94.434 88.045,94.258 87.581,94.045 87.226 L 93.656 86.581 93.827 87.226 M96.519 88.868 C 96.515 89.164,98.286 92.446,98.627 92.774 C 98.926 93.062,98.210 91.584,97.189 89.806 C 96.822 89.168,96.521 88.745,96.519 88.868 M95.357 91.226 C 95.585 92.171,96.543 94.350,96.378 93.548 C 96.290 93.123,95.997 92.310,95.725 91.742 C 95.454 91.174,95.288 90.942,95.357 91.226 M98.841 93.290 C 98.842 93.432,99.073 93.897,99.355 94.323 C 100.023 95.332,100.024 94.973,99.356 93.877 C 99.072 93.412,98.841 93.148,98.841 93.290 M316.940 93.714 C 316.758 94.006,316.666 94.301,316.735 94.370 C 316.805 94.439,316.996 94.244,317.161 93.935 C 317.551 93.207,317.370 93.026,316.940 93.714 M96.922 95.484 C 97.017 95.839,97.202 96.303,97.334 96.516 C 97.500 96.785,97.520 96.706,97.400 96.258 C 97.306 95.903,97.120 95.439,96.989 95.226 C 96.822 94.957,96.802 95.035,96.922 95.484 M100.645 96.615 C 100.645 96.892,101.413 98.323,101.562 98.323 C 101.633 98.323,101.499 97.945,101.264 97.484 C 100.785 96.542,100.645 96.346,100.645 96.615 M97.874 97.935 C 98.283 99.397,100.529 104.990,100.611 104.747 C 100.663 104.592,100.579 104.215,100.425 103.910 C 100.271 103.605,99.667 102.077,99.082 100.516 C 98.111 97.925,97.516 96.652,97.874 97.935 M101.677 98.679 C 101.677 98.956,102.445 100.387,102.594 100.387 C 102.665 100.387,102.531 100.010,102.296 99.548 C 101.817 98.606,101.677 98.410,101.677 98.679 M102.948 101.226 C 103.355 102.276,104.592 104.527,104.701 104.418 C 104.823 104.296,103.024 100.645,102.842 100.645 C 102.776 100.645,102.824 100.906,102.948 101.226 M312.052 103.102 C 311.743 103.738,311.545 104.258,311.611 104.258 C 311.786 104.258,312.829 102.162,312.712 102.045 C 312.658 101.991,312.361 102.467,312.052 103.102 M105.871 106.815 C 106.474 107.938,107.003 108.823,107.045 108.781 C 107.183 108.646,105.184 104.774,104.976 104.774 C 104.865 104.774,105.268 105.693,105.871 106.815 M100.795 105.806 C 101.043 106.743,101.404 107.357,101.402 106.839 C 101.402 106.626,101.226 106.161,101.012 105.806 L 100.624 105.161 100.795 105.806 M309.731 107.492 C 309.278 108.410,308.963 109.161,309.031 109.161 C 309.204 109.161,310.764 106.033,310.649 105.918 C 310.597 105.866,310.184 106.574,309.731 107.492 M101.419 107.436 C 101.419 107.731,102.255 109.702,102.343 109.614 C 102.455 109.502,101.825 107.674,101.596 107.446 C 101.499 107.348,101.419 107.344,101.419 107.436 M107.355 109.518 C 107.355 109.795,108.123 111.226,108.271 111.226 C 108.342 111.226,108.208 110.848,107.974 110.387 C 107.495 109.445,107.355 109.249,107.355 109.518 M103.131 112.000 C 103.218 112.355,103.448 112.994,103.642 113.419 C 103.925 114.041,103.964 114.067,103.836 113.548 C 103.749 113.194,103.519 112.555,103.326 112.129 C 103.042 111.507,103.004 111.482,103.131 112.000 M108.907 112.576 C 108.901 112.847,110.546 116.232,110.763 116.395 C 110.863 116.471,111.120 116.935,111.334 117.428 C 111.547 117.920,111.726 118.178,111.732 118.002 C 111.737 117.826,111.222 116.664,110.586 115.421 C 109.364 113.030,108.914 112.267,108.907 112.576 M105.322 118.458 C 105.712 119.613,105.932 119.837,105.695 118.839 C 105.594 118.413,105.401 117.951,105.265 117.812 C 105.129 117.674,105.155 117.964,105.322 118.458 M112.439 119.733 C 112.512 120.013,112.730 120.373,112.924 120.534 C 113.191 120.755,113.179 120.631,112.877 120.026 C 112.421 119.111,112.246 118.994,112.439 119.733 M106.471 121.806 C 106.565 122.161,106.751 122.626,106.882 122.839 C 107.048 123.108,107.069 123.029,106.949 122.581 C 106.854 122.226,106.669 121.761,106.537 121.548 C 106.371 121.279,106.351 121.358,106.471 121.806 M113.566 121.806 C 113.565 122.019,113.735 122.419,113.944 122.694 C 114.426 123.332,114.420 122.913,113.935 122.065 C 113.722 121.690,113.566 121.582,113.566 121.806 M114.668 124.194 C 115.274 125.639,116.668 128.160,116.486 127.484 C 116.297 126.782,114.579 123.355,114.416 123.355 C 114.361 123.355,114.474 123.732,114.668 124.194 M107.137 123.742 C 107.137 123.884,107.293 124.406,107.484 124.903 C 107.675 125.400,107.835 125.632,107.840 125.419 C 107.844 125.206,107.688 124.684,107.493 124.258 C 107.298 123.832,107.138 123.600,107.137 123.742 M107.907 126.194 C 107.907 126.406,108.007 126.813,108.129 127.097 C 108.269 127.422,108.351 127.470,108.351 127.226 C 108.351 127.013,108.251 126.606,108.129 126.323 C 107.989 125.997,107.907 125.950,107.907 126.194 M118.221 131.548 C 119.067 133.440,119.782 134.458,119.081 132.774 C 118.498 131.372,117.692 129.806,117.554 129.806 C 117.492 129.806,117.792 130.590,118.221 131.548 M110.216 134.452 C 110.223 134.665,110.330 135.071,110.452 135.355 L 110.673 135.871 110.688 135.355 C 110.695 135.071,110.589 134.665,110.452 134.452 C 110.229 134.108,110.203 134.108,110.216 134.452 M121.226 138.129 C 121.365 138.687,122.065 139.891,122.065 139.573 C 122.065 139.320,121.292 137.548,121.182 137.548 C 121.126 137.548,121.146 137.810,121.226 138.129 M111.707 141.169 C 111.921 142.294,112.145 143.167,112.204 143.108 C 112.356 142.956,111.690 139.353,111.486 139.227 C 111.393 139.169,111.492 140.043,111.707 141.169 M112.304 143.871 C 112.300 144.155,112.457 145.316,112.652 146.452 L 113.007 148.516 112.874 146.839 C 112.739 145.130,112.317 142.933,112.304 143.871 M124.662 146.581 C 124.663 146.794,124.838 147.258,125.052 147.613 L 125.441 148.258 125.270 147.613 C 125.022 146.676,124.660 146.063,124.662 146.581 M125.428 148.538 C 125.443 148.942,127.195 153.695,127.211 153.375 C 127.226 153.068,125.708 148.605,125.521 148.409 C 125.465 148.349,125.423 148.408,125.428 148.538 M113.382 153.677 C 113.381 154.955,113.425 155.510,113.479 154.911 C 113.533 154.312,113.534 153.267,113.480 152.588 C 113.427 151.910,113.383 152.400,113.382 153.677 M314.124 157.161 C 314.124 157.658,314.177 157.861,314.242 157.613 C 314.307 157.365,314.307 156.958,314.242 156.710 C 314.177 156.461,314.124 156.665,314.124 157.161 M113.290 158.839 C 113.290 159.951,113.353 160.798,113.429 160.722 C 113.618 160.532,113.630 157.157,113.442 156.969 C 113.359 156.885,113.290 157.727,113.290 158.839 M128.276 157.598 C 128.266 157.909,128.374 158.235,128.516 158.323 C 128.821 158.511,128.821 158.259,128.516 157.548 C 128.302 157.051,128.294 157.053,128.276 157.598 M313.898 161.677 C 313.897 162.955,313.941 163.510,313.995 162.911 C 314.049 162.312,314.050 161.267,313.996 160.588 C 313.943 159.910,313.899 160.400,313.898 161.677 M302.972 164.022 C 302.974 164.435,303.087 164.948,303.222 165.161 C 303.391 165.425,303.419 165.219,303.311 164.516 C 303.115 163.240,302.966 163.023,302.972 164.022 M112.765 164.323 C 112.760 164.713,112.591 165.724,112.389 166.570 C 111.979 168.285,112.064 168.863,112.499 167.315 C 112.863 166.015,113.149 163.613,112.939 163.613 C 112.848 163.613,112.770 163.932,112.765 164.323 M130.121 164.387 C 130.118 164.742,130.209 165.323,130.323 165.677 C 130.600 166.545,130.600 165.608,130.323 164.516 C 130.146 163.821,130.125 163.808,130.121 164.387 M130.883 168.387 C 130.878 168.813,130.975 169.394,131.097 169.677 C 131.400 170.383,131.400 169.205,131.097 168.258 C 130.895 167.629,130.890 167.632,130.883 168.387 M285.032 168.774 C 284.933 169.361,284.910 169.899,284.981 169.970 C 285.052 170.041,285.191 169.619,285.290 169.032 C 285.389 168.445,285.413 167.907,285.342 167.836 C 285.271 167.765,285.131 168.187,285.032 168.774 M111.609 169.567 C 111.476 170.172,111.547 170.444,111.911 170.720 C 112.626 171.261,112.846 171.169,112.254 170.577 C 111.887 170.209,111.781 169.868,111.895 169.415 C 111.984 169.063,111.995 168.774,111.919 168.774 C 111.844 168.774,111.705 169.131,111.609 169.567 M131.592 172.581 C 131.716 173.472,131.734 173.489,131.819 172.807 C 131.870 172.400,131.809 171.964,131.685 171.840 C 131.555 171.710,131.516 172.026,131.592 172.581 M115.097 172.895 C 116.119 173.749,116.873 174.140,116.406 173.574 C 116.203 173.328,115.681 172.954,115.245 172.742 L 114.452 172.356 115.097 172.895 M300.523 172.892 C 300.439 173.028,299.380 173.805,298.170 174.619 C 296.960 175.432,295.901 176.210,295.816 176.347 C 295.608 176.683,295.987 176.449,298.581 174.635 C 301.125 172.855,301.377 172.645,300.970 172.645 C 300.808 172.645,300.607 172.756,300.523 172.892 M131.936 174.839 C 131.939 175.406,131.992 175.608,132.053 175.287 C 132.115 174.966,132.113 174.502,132.048 174.255 C 131.984 174.008,131.933 174.271,131.936 174.839 M284.194 175.097 C 284.197 175.665,284.250 175.866,284.312 175.545 C 284.373 175.224,284.371 174.760,284.306 174.513 C 284.242 174.266,284.191 174.529,284.194 175.097 M132.203 177.161 C 132.205 177.871,132.255 178.131,132.314 177.738 C 132.374 177.346,132.372 176.765,132.311 176.448 C 132.249 176.131,132.201 176.452,132.203 177.161 M293.498 177.959 L 292.774 178.628 293.613 178.071 C 294.381 177.560,294.631 177.290,294.337 177.290 C 294.274 177.290,293.896 177.591,293.498 177.959 M291.177 179.478 C 290.444 179.972,289.757 180.516,289.651 180.687 C 289.545 180.859,290.176 180.496,291.052 179.882 C 292.452 178.899,292.826 178.581,292.577 178.581 C 292.540 178.581,291.910 178.984,291.177 179.478 M124.013 179.052 C 124.673 179.626,126.968 181.188,126.968 181.062 C 126.968 180.877,124.211 178.839,123.959 178.839 C 123.854 178.839,123.878 178.935,124.013 179.052 M283.690 181.677 C 283.690 182.458,283.739 182.777,283.798 182.387 C 283.857 181.997,283.857 181.358,283.798 180.968 C 283.739 180.577,283.690 180.897,283.690 181.677 M132.467 182.323 C 132.469 183.174,132.517 183.491,132.574 183.028 C 132.632 182.564,132.630 181.867,132.571 181.479 C 132.513 181.091,132.466 181.471,132.467 182.323 M127.226 181.269 C 127.226 181.338,127.777 181.757,128.452 182.199 C 129.491 182.882,129.560 182.902,128.903 182.328 C 128.067 181.598,127.226 181.066,127.226 181.269 M287.613 182.087 L 286.839 182.752 287.677 182.197 C 288.139 181.892,288.516 181.592,288.516 181.531 C 288.516 181.338,288.407 181.405,287.613 182.087 M130.080 183.140 C 130.104 183.458,132.317 185.017,132.494 184.840 C 132.577 184.756,132.645 184.510,132.645 184.292 C 132.645 183.993,132.573 183.969,132.346 184.196 C 132.120 184.422,131.807 184.305,131.056 183.710 C 130.511 183.278,130.072 183.021,130.080 183.140 M284.904 183.871 C 284.248 184.354,283.979 184.435,283.825 184.193 C 283.690 183.981,283.619 184.074,283.617 184.468 C 283.613 185.056,283.630 185.052,284.774 184.230 C 285.819 183.480,286.093 183.226,285.857 183.226 C 285.813 183.226,285.384 183.516,284.904 183.871 M218.682 208.903 C 218.683 210.890,218.723 211.669,218.772 210.634 C 218.822 209.599,218.821 207.973,218.772 207.021 C 218.722 206.069,218.682 206.916,218.682 208.903 M196.710 246.120 C 197.100 246.179,197.739 246.179,198.129 246.120 C 198.519 246.061,198.200 246.013,197.419 246.013 C 196.639 246.013,196.319 246.061,196.710 246.120 M240.854 251.742 C 240.856 252.594,240.904 252.911,240.961 252.447 C 241.019 251.983,241.017 251.286,240.959 250.899 C 240.900 250.511,240.853 250.890,240.854 251.742 M298.899 253.161 C 298.899 253.658,298.952 253.861,299.017 253.613 C 299.082 253.365,299.082 252.958,299.017 252.710 C 298.952 252.461,298.899 252.665,298.899 253.161 M277.497 254.968 C 277.497 255.748,277.545 256.068,277.604 255.677 C 277.663 255.287,277.663 254.648,277.604 254.258 C 277.545 253.868,277.497 254.187,277.497 254.968 M309.147 256.968 L 308.258 257.935 309.226 257.046 C 309.758 256.557,310.194 256.122,310.194 256.078 C 310.194 255.881,309.975 256.067,309.147 256.968 M199.548 259.017 C 199.797 259.082,200.203 259.082,200.452 259.017 C 200.700 258.952,200.497 258.899,200.000 258.899 C 199.503 258.899,199.300 258.952,199.548 259.017 M322.909 261.161 C 322.909 261.800,322.959 262.061,323.021 261.742 C 323.082 261.423,323.082 260.900,323.021 260.581 C 322.959 260.261,322.909 260.523,322.909 261.161 M205.221 272.516 C 205.221 273.013,205.274 273.216,205.339 272.968 C 205.404 272.719,205.404 272.313,205.339 272.065 C 205.274 271.816,205.221 272.019,205.221 272.516 M190.774 276.823 C 191.023 276.888,191.429 276.888,191.677 276.823 C 191.926 276.758,191.723 276.705,191.226 276.705 C 190.729 276.705,190.526 276.758,190.774 276.823 M343.802 282.581 C 343.802 283.077,343.855 283.281,343.920 283.032 C 343.985 282.784,343.985 282.377,343.920 282.129 C 343.855 281.881,343.802 282.084,343.802 282.581 M224.065 296.387 C 224.068 296.955,224.121 297.157,224.183 296.836 C 224.244 296.515,224.242 296.050,224.177 295.803 C 224.113 295.557,224.062 295.819,224.065 296.387 M233.117 298.710 C 233.118 299.703,233.165 300.078,233.221 299.543 C 233.276 299.007,233.276 298.194,233.219 297.736 C 233.162 297.278,233.116 297.716,233.117 298.710 M148.710 300.049 C 148.958 300.114,149.365 300.114,149.613 300.049 C 149.861 299.984,149.658 299.931,149.161 299.931 C 148.665 299.931,148.461 299.984,148.710 300.049 M197.221 300.645 C 197.221 301.142,197.274 301.345,197.339 301.097 C 197.404 300.848,197.404 300.442,197.339 300.194 C 197.274 299.945,197.221 300.148,197.221 300.645 M134.903 300.322 C 136.500 300.367,139.113 300.367,140.710 300.322 C 142.306 300.276,141.000 300.239,137.806 300.239 C 134.613 300.239,133.306 300.276,134.903 300.322 M125.226 301.339 C 125.474 301.404,125.881 301.404,126.129 301.339 C 126.377 301.274,126.174 301.221,125.677 301.221 C 125.181 301.221,124.977 301.274,125.226 301.339 M143.275 311.677 C 145.076 311.721,148.096 311.721,149.985 311.677 C 151.874 311.633,150.400 311.596,146.710 311.596 C 143.019 311.596,141.474 311.632,143.275 311.677 " stroke="none" fill="#6caab3" fill-rule="evenodd"></path><path id="path3" d="M91.623 80.553 C 91.751 80.999,91.783 81.481,91.695 81.625 C 91.605 81.769,91.660 81.807,91.818 81.710 C 92.071 81.554,92.538 83.018,92.393 83.514 C 92.365 83.608,92.475 83.766,92.636 83.865 C 92.797 83.965,92.948 84.297,92.971 84.604 C 92.994 84.910,93.085 85.161,93.173 85.161 C 93.261 85.161,93.459 85.539,93.613 86.000 C 93.767 86.461,94.187 87.648,94.545 88.638 C 94.904 89.627,95.151 90.483,95.095 90.539 C 95.038 90.596,95.156 90.806,95.356 91.006 C 95.557 91.206,95.917 92.034,96.158 92.846 C 96.398 93.658,96.816 94.808,97.087 95.402 C 97.357 95.996,97.596 96.722,97.618 97.015 C 97.640 97.308,97.739 97.548,97.837 97.548 C 98.115 97.548,98.850 99.902,98.665 100.201 C 98.570 100.354,98.627 100.389,98.799 100.283 C 99.075 100.112,99.198 100.469,99.167 101.352 C 99.160 101.528,99.244 101.617,99.352 101.550 C 99.460 101.483,99.695 101.952,99.874 102.592 C 100.053 103.232,100.300 103.817,100.422 103.893 C 100.545 103.969,100.645 104.252,100.645 104.523 C 100.645 104.793,100.835 105.454,101.068 105.991 C 101.301 106.528,101.576 107.200,101.681 107.484 C 101.786 107.768,102.003 108.328,102.165 108.729 C 102.326 109.130,102.398 109.556,102.324 109.675 C 102.251 109.794,102.285 109.930,102.402 109.978 C 102.716 110.106,104.029 113.810,103.858 114.085 C 103.777 114.216,103.847 114.323,104.012 114.323 C 104.178 114.323,104.250 114.488,104.172 114.691 C 104.094 114.893,104.198 115.198,104.402 115.368 C 104.607 115.537,104.774 115.984,104.774 116.361 C 104.774 116.738,104.928 117.276,105.116 117.555 C 105.463 118.071,106.876 122.128,106.956 122.839 C 106.980 123.052,107.146 123.496,107.326 123.827 C 107.506 124.157,107.587 124.599,107.507 124.808 C 107.414 125.050,107.468 125.122,107.657 125.005 C 107.858 124.881,107.906 125.001,107.807 125.379 C 107.727 125.685,107.752 125.935,107.864 125.935 C 108.116 125.935,108.663 128.021,108.486 128.307 C 108.415 128.422,108.467 128.516,108.602 128.516 C 108.809 128.516,108.993 129.205,109.204 130.774 C 109.228 130.952,109.358 131.097,109.492 131.097 C 109.627 131.097,109.677 131.329,109.603 131.613 C 109.528 131.897,109.553 132.129,109.658 132.129 C 109.871 132.129,110.468 134.232,110.536 135.226 C 110.561 135.581,110.669 135.937,110.777 136.017 C 110.884 136.097,111.000 136.648,111.035 137.241 C 111.069 137.834,111.169 138.321,111.258 138.321 C 111.509 138.323,112.336 142.891,112.142 143.205 C 112.047 143.358,112.081 143.484,112.216 143.484 C 112.437 143.484,113.036 146.956,113.040 148.258 C 113.041 148.542,113.042 149.321,113.043 149.989 C 113.044 150.656,113.160 151.275,113.302 151.362 C 113.526 151.500,113.577 153.219,113.539 159.355 C 113.535 159.923,113.429 160.735,113.302 161.161 C 113.176 161.587,113.084 162.168,113.098 162.452 C 113.170 163.873,113.006 165.433,112.798 165.305 C 112.670 165.226,112.625 165.393,112.699 165.676 C 112.773 165.960,112.660 166.744,112.447 167.419 C 111.658 169.922,111.660 169.966,112.647 170.953 C 113.148 171.453,113.584 171.848,113.617 171.831 C 113.824 171.724,115.318 172.854,115.168 173.004 C 115.067 173.105,115.169 173.117,115.396 173.030 C 115.662 172.928,116.004 173.119,116.356 173.568 C 116.657 173.950,116.903 174.187,116.903 174.093 C 116.903 173.759,120.267 176.167,120.968 177.004 C 121.145 177.216,121.290 177.298,121.290 177.186 C 121.290 177.075,121.842 177.379,122.516 177.861 C 123.190 178.344,123.953 178.819,124.210 178.916 C 124.467 179.013,124.604 179.213,124.513 179.359 C 124.423 179.506,124.444 179.609,124.561 179.589 C 125.111 179.493,125.433 179.640,125.266 179.911 C 125.151 180.096,125.195 180.139,125.382 180.023 C 125.553 179.917,126.004 180.150,126.428 180.564 C 126.838 180.963,127.315 181.324,127.488 181.365 C 127.969 181.479,129.548 182.739,129.548 183.010 C 129.548 183.141,129.752 183.214,130.000 183.173 C 130.252 183.130,130.423 183.239,130.387 183.419 C 130.352 183.597,130.410 183.728,130.516 183.711 C 131.074 183.623,131.367 183.774,131.200 184.065 C 131.098 184.242,131.109 184.301,131.225 184.196 C 131.341 184.091,131.582 184.125,131.760 184.273 C 132.386 184.792,132.909 179.735,132.351 178.560 C 132.245 178.335,132.102 177.174,132.034 175.979 C 131.965 174.784,131.838 173.624,131.751 173.400 C 131.664 173.177,131.556 172.422,131.511 171.723 C 131.467 171.024,131.291 170.108,131.120 169.689 C 130.950 169.269,130.834 168.630,130.862 168.269 C 130.890 167.908,130.828 167.415,130.724 167.174 C 130.620 166.932,130.610 166.613,130.702 166.464 C 130.794 166.315,130.756 166.194,130.619 166.194 C 130.481 166.194,130.286 165.700,130.187 165.097 C 130.087 164.494,129.776 163.071,129.496 161.935 C 129.215 160.800,128.958 159.617,128.924 159.306 C 128.890 158.995,128.713 158.560,128.530 158.339 C 128.347 158.119,128.257 157.711,128.329 157.433 C 128.402 157.155,128.342 156.888,128.196 156.840 C 128.051 156.791,127.918 156.379,127.901 155.925 C 127.885 155.470,127.771 155.098,127.650 155.097 C 127.528 155.097,127.490 154.937,127.565 154.741 C 127.640 154.546,127.571 154.255,127.412 154.096 C 127.253 153.937,127.233 153.805,127.368 153.802 C 127.503 153.800,127.487 153.713,127.333 153.609 C 127.179 153.505,126.634 152.200,126.121 150.710 C 125.608 149.219,124.954 147.373,124.667 146.607 C 124.380 145.841,124.201 145.125,124.268 145.016 C 124.335 144.907,124.299 144.779,124.187 144.732 C 123.952 144.632,122.417 141.025,122.283 140.258 C 122.234 139.974,121.990 139.517,121.742 139.242 C 121.494 138.967,121.290 138.531,121.290 138.274 C 121.290 137.605,121.238 137.460,120.868 137.089 C 120.687 136.908,120.611 136.569,120.700 136.337 C 120.818 136.030,120.768 135.974,120.516 136.129 C 120.263 136.285,120.215 136.227,120.335 135.913 C 120.426 135.677,120.405 135.484,120.289 135.484 C 120.047 135.484,119.126 133.450,119.151 132.971 C 119.160 132.795,119.078 132.706,118.969 132.774 C 118.859 132.841,118.620 132.521,118.438 132.061 C 118.256 131.602,117.720 130.430,117.248 129.458 C 116.775 128.485,116.465 127.567,116.557 127.418 C 116.649 127.268,116.610 127.217,116.469 127.304 C 116.148 127.503,115.285 125.740,115.519 125.362 C 115.617 125.204,115.574 125.155,115.422 125.249 C 115.097 125.450,114.766 124.713,115.007 124.324 C 115.107 124.162,115.054 124.125,114.879 124.233 C 114.618 124.394,114.556 124.233,114.586 123.479 C 114.589 123.405,114.357 123.093,114.070 122.785 C 113.596 122.276,113.424 121.781,113.524 121.207 C 113.545 121.090,113.442 121.067,113.297 121.157 C 113.063 121.302,112.905 120.766,113.008 120.174 C 113.028 120.057,112.926 120.035,112.781 120.125 C 112.551 120.267,112.393 119.750,112.486 119.161 C 112.502 119.055,112.413 118.968,112.286 118.968 C 112.160 118.968,111.798 118.416,111.482 117.742 C 111.166 117.068,110.794 116.444,110.655 116.356 C 110.515 116.268,110.384 115.902,110.362 115.542 C 110.340 115.183,110.250 114.933,110.162 114.987 C 110.074 115.042,109.679 114.363,109.285 113.479 C 108.890 112.594,108.440 111.786,108.284 111.681 C 108.128 111.577,108.085 111.490,108.190 111.488 C 108.294 111.486,108.149 111.106,107.868 110.645 C 107.587 110.184,107.356 109.613,107.356 109.376 C 107.355 109.140,107.262 108.908,107.149 108.860 C 106.690 108.669,102.662 100.931,102.857 100.616 C 102.935 100.490,102.875 100.387,102.725 100.387 C 102.574 100.387,102.000 99.457,101.449 98.320 C 100.897 97.183,100.300 96.077,100.122 95.862 C 99.943 95.647,99.867 95.402,99.951 95.318 C 100.035 95.233,99.935 94.995,99.727 94.787 C 99.520 94.580,99.427 94.285,99.521 94.133 C 99.617 93.978,99.573 93.930,99.420 94.024 C 99.269 94.117,99.024 93.876,98.872 93.484 C 98.720 93.093,98.300 92.273,97.938 91.661 C 97.576 91.049,97.358 90.421,97.454 90.266 C 97.552 90.108,97.510 90.058,97.357 90.152 C 97.032 90.353,96.702 89.617,96.942 89.227 C 97.050 89.053,96.987 89.030,96.770 89.164 C 96.522 89.317,96.474 89.257,96.593 88.946 C 96.684 88.709,96.647 88.516,96.511 88.516 C 96.376 88.516,95.842 87.674,95.326 86.645 C 94.809 85.616,94.158 84.451,93.879 84.055 C 93.600 83.660,93.439 83.160,93.521 82.945 C 93.619 82.691,93.566 82.619,93.373 82.739 C 93.171 82.863,93.129 82.779,93.244 82.481 C 93.337 82.237,93.313 82.100,93.191 82.175 C 93.068 82.251,92.728 81.734,92.434 81.027 C 91.835 79.588,91.248 79.244,91.623 80.553 M324.107 80.203 C 323.887 80.460,323.759 80.826,323.823 81.016 C 323.891 81.222,323.821 81.290,323.649 81.184 C 323.466 81.070,323.416 81.151,323.514 81.404 C 323.604 81.638,323.497 81.867,323.254 81.960 C 323.027 82.047,322.906 82.223,322.984 82.350 C 323.063 82.477,323.004 82.581,322.854 82.581 C 322.704 82.581,322.594 82.668,322.611 82.774 C 322.698 83.326,322.534 83.824,322.115 84.274 C 321.858 84.549,321.631 84.890,321.609 85.032 C 321.506 85.693,320.678 87.197,320.483 87.076 C 320.363 87.002,320.328 87.107,320.406 87.311 C 320.484 87.514,320.253 88.000,319.892 88.389 C 319.531 88.779,319.298 89.199,319.375 89.323 C 319.452 89.447,319.384 89.548,319.226 89.548 C 319.067 89.548,319.003 89.655,319.084 89.786 C 319.165 89.916,319.051 90.202,318.832 90.422 C 318.613 90.641,318.437 90.882,318.442 90.959 C 318.471 91.394,318.395 91.549,317.822 92.215 C 317.454 92.643,317.259 93.115,317.350 93.354 C 317.463 93.646,317.410 93.702,317.165 93.551 C 316.930 93.406,316.885 93.439,317.020 93.657 C 317.136 93.846,316.995 94.181,316.673 94.481 C 316.185 94.936,316.010 95.331,316.194 95.567 C 316.229 95.612,316.055 95.853,315.806 96.101 C 315.558 96.350,315.355 96.719,315.355 96.922 C 315.355 97.124,315.219 97.290,315.054 97.290 C 314.888 97.290,314.825 97.362,314.912 97.450 C 315.000 97.538,314.902 97.780,314.695 97.987 C 314.488 98.194,314.384 98.471,314.464 98.601 C 314.545 98.732,314.481 98.839,314.323 98.839 C 314.164 98.839,314.106 98.955,314.194 99.097 C 314.281 99.239,314.223 99.355,314.065 99.355 C 313.906 99.355,313.853 99.480,313.948 99.633 C 314.042 99.785,313.872 100.141,313.570 100.422 C 313.268 100.704,313.088 101.043,313.171 101.177 C 313.253 101.310,313.198 101.419,313.047 101.419 C 312.897 101.419,312.774 101.588,312.774 101.794 C 312.774 102.394,312.203 103.480,311.965 103.333 C 311.846 103.259,311.817 103.378,311.901 103.597 C 311.991 103.832,311.884 104.061,311.641 104.154 C 311.414 104.241,311.293 104.416,311.372 104.543 C 311.450 104.670,311.384 104.774,311.226 104.774 C 311.067 104.774,311.009 104.890,311.097 105.032 C 311.184 105.174,311.133 105.290,310.983 105.290 C 310.833 105.290,310.710 105.477,310.710 105.704 C 310.710 106.244,308.905 109.677,308.621 109.677 C 308.501 109.677,308.464 109.837,308.539 110.031 C 308.614 110.226,308.487 110.457,308.257 110.546 C 308.026 110.634,307.905 110.814,307.986 110.945 C 308.067 111.077,307.964 111.354,307.757 111.561 C 307.549 111.769,307.451 112.010,307.539 112.098 C 307.627 112.186,307.571 112.258,307.415 112.258 C 307.137 112.258,306.687 113.231,306.788 113.613 C 306.816 113.719,306.716 113.806,306.565 113.806 C 306.415 113.806,306.358 113.913,306.438 114.042 C 306.518 114.172,306.461 114.320,306.310 114.370 C 306.160 114.420,306.000 114.633,305.957 114.843 C 305.772 115.729,305.222 116.903,304.992 116.903 C 304.855 116.903,304.816 117.019,304.903 117.161 C 304.991 117.303,304.943 117.419,304.798 117.419 C 304.652 117.419,304.590 117.569,304.660 117.751 C 304.730 117.933,304.523 118.366,304.200 118.713 C 303.877 119.059,303.641 119.404,303.674 119.478 C 303.798 119.749,303.442 120.516,303.193 120.516 C 303.052 120.516,303.009 120.632,303.097 120.774 C 303.184 120.916,303.126 121.032,302.968 121.032 C 302.809 121.032,302.751 121.148,302.839 121.290 C 302.926 121.432,302.875 121.548,302.725 121.548 C 302.575 121.548,302.452 121.781,302.452 122.065 C 302.452 122.348,302.329 122.581,302.178 122.581 C 302.028 122.581,301.977 122.697,302.065 122.839 C 302.152 122.981,302.082 123.097,301.908 123.097 C 301.734 123.097,301.663 123.169,301.751 123.257 C 301.839 123.344,301.747 123.580,301.547 123.780 C 301.347 123.980,301.248 124.314,301.328 124.521 C 301.409 124.733,301.291 124.969,301.061 125.057 C 300.834 125.144,300.712 125.319,300.791 125.446 C 300.869 125.573,300.811 125.677,300.660 125.677 C 300.510 125.677,300.387 125.968,300.387 126.323 C 300.387 126.677,300.271 126.968,300.129 126.968 C 299.987 126.968,299.871 127.142,299.871 127.355 C 299.871 127.568,299.758 127.742,299.621 127.742 C 299.484 127.742,299.434 127.907,299.512 128.109 C 299.589 128.311,299.441 128.688,299.181 128.948 C 298.922 129.207,298.709 129.535,298.709 129.677 C 298.707 130.140,297.713 132.129,297.483 132.129 C 297.360 132.129,297.326 132.236,297.406 132.366 C 297.487 132.497,297.383 132.773,297.176 132.981 C 296.969 133.188,296.871 133.430,296.959 133.518 C 297.046 133.606,296.983 133.677,296.817 133.677 C 296.652 133.677,296.541 133.765,296.571 133.871 C 296.601 133.977,296.489 134.311,296.322 134.611 C 296.155 134.912,296.091 135.231,296.181 135.321 C 296.271 135.411,296.189 135.484,296.000 135.484 C 295.811 135.484,295.728 135.556,295.816 135.644 C 295.904 135.731,295.807 135.972,295.601 136.178 C 295.394 136.384,295.226 136.835,295.226 137.180 C 295.226 137.524,295.103 137.806,294.953 137.806 C 294.802 137.806,294.751 137.923,294.839 138.065 C 294.926 138.206,294.879 138.323,294.733 138.323 C 294.587 138.323,294.529 138.482,294.604 138.676 C 294.678 138.871,294.588 139.193,294.402 139.392 C 294.216 139.591,294.033 139.926,293.994 140.135 C 293.880 140.745,293.066 142.566,292.833 142.733 C 292.715 142.817,292.600 143.136,292.577 143.443 C 292.554 143.749,292.437 144.000,292.317 144.000 C 292.197 144.000,292.165 144.108,292.247 144.240 C 292.329 144.372,292.283 144.550,292.145 144.636 C 292.006 144.721,291.966 144.980,292.055 145.212 C 292.162 145.492,292.116 145.571,291.918 145.448 C 291.722 145.328,291.672 145.402,291.773 145.664 C 291.857 145.884,291.798 146.065,291.641 146.065 C 291.483 146.065,291.369 146.152,291.385 146.258 C 291.486 146.894,291.317 147.620,291.100 147.486 C 290.953 147.395,290.910 147.499,290.998 147.729 C 291.083 147.949,291.027 148.129,290.874 148.129 C 290.722 148.129,290.664 148.303,290.745 148.516 C 290.830 148.735,290.751 148.903,290.565 148.903 C 290.384 148.903,290.313 148.980,290.406 149.073 C 290.500 149.166,290.463 149.379,290.325 149.545 C 290.188 149.711,290.023 150.128,289.960 150.472 C 289.897 150.816,289.822 151.126,289.793 151.161 C 289.765 151.197,289.713 151.342,289.677 151.484 C 289.642 151.626,289.585 151.829,289.550 151.935 C 289.516 152.042,289.507 152.235,289.531 152.363 C 289.556 152.492,289.456 152.672,289.310 152.762 C 289.165 152.852,289.010 153.153,288.967 153.431 C 288.924 153.708,288.787 154.097,288.664 154.295 C 288.541 154.493,288.449 154.989,288.461 155.397 C 288.472 155.805,288.402 156.089,288.305 156.030 C 288.208 155.970,288.102 156.287,288.070 156.733 C 288.038 157.179,287.899 157.582,287.762 157.628 C 287.625 157.673,287.572 157.866,287.645 158.055 C 287.718 158.244,287.651 158.477,287.497 158.572 C 287.343 158.668,287.279 158.845,287.354 158.967 C 287.430 159.089,287.278 159.748,287.017 160.433 C 286.757 161.117,286.589 161.881,286.646 162.129 C 286.702 162.377,286.627 162.581,286.479 162.581 C 286.331 162.581,286.274 162.749,286.354 162.955 C 286.433 163.161,286.402 163.481,286.285 163.665 C 286.168 163.849,286.063 164.058,286.052 164.129 C 286.040 164.200,285.898 164.712,285.735 165.266 C 285.572 165.821,285.499 166.372,285.573 166.492 C 285.647 166.612,285.622 166.848,285.518 167.017 C 285.414 167.186,285.308 167.894,285.284 168.590 C 285.259 169.287,285.102 169.942,284.933 170.046 C 284.765 170.150,284.700 170.423,284.788 170.653 C 284.877 170.884,284.853 171.223,284.736 171.407 C 284.478 171.814,284.371 172.838,284.396 174.669 C 284.407 175.534,284.317 175.987,284.154 175.886 C 283.994 175.787,283.902 176.149,283.915 176.831 C 283.927 177.438,283.890 179.314,283.834 181.000 C 283.772 182.866,283.835 184.179,283.995 184.358 C 284.140 184.519,284.233 184.606,284.202 184.549 C 284.107 184.376,285.410 183.440,285.834 183.377 C 286.054 183.345,286.313 183.204,286.408 183.065 C 286.695 182.644,288.424 181.413,288.550 181.540 C 288.615 181.604,289.224 181.139,289.904 180.506 C 291.053 179.436,291.404 179.235,291.955 179.331 C 292.072 179.351,292.094 179.249,292.004 179.103 C 291.914 178.958,291.963 178.839,292.114 178.839 C 292.588 178.839,292.761 178.733,293.290 178.119 C 293.574 177.790,294.018 177.490,294.276 177.452 C 294.534 177.415,295.104 177.043,295.543 176.627 C 296.668 175.560,300.213 173.182,300.455 173.333 C 300.567 173.401,300.626 173.304,300.587 173.116 C 300.548 172.928,300.692 172.772,300.908 172.769 C 301.124 172.767,301.559 172.506,301.876 172.189 C 302.192 171.872,302.613 171.613,302.811 171.613 C 303.009 171.613,303.238 171.438,303.320 171.223 C 303.402 171.009,303.613 170.864,303.788 170.901 C 303.962 170.938,304.117 170.852,304.130 170.710 C 304.143 170.568,304.239 170.206,304.342 169.905 C 304.445 169.604,304.388 169.024,304.214 168.615 C 304.041 168.206,303.877 167.755,303.850 167.613 C 303.823 167.471,303.775 167.297,303.742 167.226 C 303.668 167.064,303.450 165.694,303.406 165.116 C 303.388 164.878,303.295 164.732,303.199 164.791 C 303.103 164.850,303.016 163.914,303.006 162.709 C 302.996 161.505,302.888 160.316,302.765 160.066 C 302.509 159.546,302.536 152.749,302.795 152.329 C 302.889 152.176,302.982 151.081,303.001 149.896 C 303.020 148.711,303.138 147.543,303.264 147.299 C 303.390 147.055,303.506 146.269,303.522 145.551 C 303.538 144.834,303.653 144.184,303.777 144.108 C 303.901 144.031,303.934 143.698,303.851 143.367 C 303.768 143.037,303.810 142.698,303.944 142.615 C 304.079 142.532,304.133 142.171,304.064 141.813 C 303.988 141.413,304.058 141.161,304.245 141.161 C 304.429 141.161,304.488 140.964,304.394 140.667 C 304.308 140.395,304.353 140.101,304.494 140.013 C 304.636 139.926,304.686 139.682,304.605 139.472 C 304.524 139.262,304.591 138.930,304.753 138.735 C 304.916 138.539,305.074 137.989,305.105 137.512 C 305.136 137.035,305.247 136.581,305.351 136.503 C 305.456 136.425,305.586 136.018,305.640 135.600 C 305.694 135.181,305.824 134.636,305.929 134.388 C 306.033 134.140,306.134 133.618,306.153 133.227 C 306.172 132.836,306.282 132.448,306.397 132.364 C 306.513 132.280,306.644 131.931,306.688 131.590 C 306.733 131.248,306.908 130.623,307.077 130.202 C 307.246 129.782,307.407 129.114,307.434 128.719 C 307.461 128.324,307.579 128.001,307.695 128.001 C 307.811 128.000,307.825 127.739,307.727 127.419 C 307.629 127.100,307.645 126.930,307.762 127.042 C 308.001 127.269,308.692 125.188,308.487 124.857 C 308.415 124.740,308.499 124.645,308.673 124.645 C 308.847 124.645,308.922 124.578,308.839 124.495 C 308.757 124.413,308.838 123.977,309.021 123.527 C 309.203 123.078,309.300 122.565,309.235 122.387 C 309.171 122.210,309.251 122.065,309.413 122.065 C 309.575 122.065,309.641 121.956,309.559 121.824 C 309.478 121.692,309.524 121.514,309.662 121.429 C 309.800 121.344,309.848 121.103,309.768 120.895 C 309.688 120.687,309.758 120.516,309.923 120.516 C 310.089 120.516,310.157 120.408,310.076 120.276 C 309.994 120.144,310.040 119.966,310.178 119.881 C 310.316 119.795,310.358 119.526,310.270 119.282 C 310.183 119.038,310.210 118.929,310.331 119.039 C 310.549 119.238,312.091 115.102,311.878 114.889 C 311.817 114.827,311.939 114.605,312.150 114.394 C 312.361 114.183,312.468 113.802,312.387 113.548 C 312.306 113.294,312.420 112.907,312.640 112.687 C 312.859 112.468,313.114 111.904,313.206 111.434 C 313.298 110.965,313.539 110.324,313.741 110.011 C 313.943 109.698,314.034 109.321,313.942 109.173 C 313.851 109.024,313.899 108.903,314.049 108.903 C 314.200 108.903,314.323 108.613,314.323 108.258 C 314.323 107.903,314.439 107.613,314.581 107.613 C 314.723 107.613,314.839 107.265,314.839 106.839 C 314.839 106.413,314.962 106.065,315.112 106.065 C 315.262 106.065,315.314 105.948,315.226 105.806 C 315.138 105.665,315.202 105.548,315.367 105.548 C 315.533 105.548,315.601 105.374,315.520 105.161 C 315.438 104.948,315.496 104.774,315.649 104.774 C 315.801 104.774,315.859 104.600,315.778 104.387 C 315.696 104.174,315.738 104.000,315.871 104.000 C 316.004 104.000,316.039 103.807,315.948 103.571 C 315.831 103.265,315.878 103.200,316.113 103.345 C 316.353 103.493,316.399 103.411,316.282 103.044 C 316.183 102.730,316.308 102.324,316.615 101.970 C 316.919 101.620,317.053 101.191,316.965 100.854 C 316.859 100.447,316.909 100.360,317.161 100.516 C 317.386 100.655,317.437 100.624,317.314 100.425 C 317.212 100.260,317.310 99.943,317.532 99.722 C 317.754 99.500,317.950 99.152,317.968 98.949 C 318.019 98.364,318.063 98.229,318.408 97.608 C 318.587 97.285,318.669 96.918,318.591 96.791 C 318.513 96.664,318.580 96.516,318.740 96.463 C 318.901 96.409,319.032 96.053,319.032 95.671 C 319.032 95.290,319.134 95.040,319.258 95.117 C 319.473 95.249,319.594 94.698,319.503 94.000 C 319.480 93.823,319.589 93.677,319.746 93.677 C 319.902 93.677,319.959 93.561,319.871 93.419 C 319.783 93.277,319.847 93.161,320.012 93.161 C 320.178 93.161,320.246 92.987,320.165 92.774 C 320.083 92.561,320.125 92.387,320.258 92.387 C 320.391 92.387,320.426 92.194,320.335 91.958 C 320.225 91.671,320.270 91.590,320.469 91.713 C 320.665 91.834,320.715 91.759,320.615 91.497 C 320.530 91.277,320.586 91.097,320.738 91.097 C 320.891 91.097,320.949 90.923,320.868 90.710 C 320.786 90.497,320.844 90.323,320.997 90.323 C 321.149 90.323,321.200 90.130,321.109 89.893 C 320.999 89.604,321.043 89.525,321.246 89.650 C 321.538 89.830,321.672 89.361,321.562 88.555 C 321.535 88.363,321.627 88.276,321.765 88.362 C 321.913 88.453,321.957 88.288,321.871 87.960 C 321.777 87.600,321.823 87.464,322.003 87.575 C 322.255 87.731,322.756 86.369,322.630 85.871 C 322.603 85.765,322.716 85.677,322.882 85.677 C 323.047 85.677,323.112 85.607,323.025 85.520 C 322.939 85.434,323.093 84.943,323.368 84.429 C 323.645 83.912,323.799 83.277,323.713 83.006 C 323.611 82.685,323.656 82.577,323.843 82.693 C 324.028 82.807,324.129 82.591,324.129 82.080 C 324.129 81.646,324.233 81.290,324.359 81.290 C 324.695 81.290,324.857 80.716,324.669 80.190 C 324.515 79.759,324.487 79.759,324.107 80.203 " stroke="none" fill="#2baae0" fill-rule="evenodd"></path><path id="path4" d="M277.677 37.892 C 277.677 38.484,277.786 38.968,277.919 38.968 C 278.053 38.968,278.094 38.536,278.012 38.000 C 277.805 36.660,277.677 36.619,277.677 37.892 M278.517 48.645 C 278.520 49.213,278.572 49.415,278.634 49.094 C 278.696 48.773,278.694 48.308,278.629 48.062 C 278.564 47.815,278.514 48.077,278.517 48.645 M302.237 76.890 C 302.086 77.323,302.017 77.677,302.084 77.677 C 302.259 77.677,302.745 76.337,302.618 76.209 C 302.559 76.151,302.388 76.457,302.237 76.890 M229.760 109.161 C 229.760 110.084,229.807 110.461,229.864 110.000 C 229.921 109.539,229.921 108.784,229.864 108.323 C 229.807 107.861,229.760 108.239,229.760 109.161 M189.497 109.161 C 189.497 109.942,189.545 110.261,189.604 109.871 C 189.663 109.481,189.663 108.842,189.604 108.452 C 189.545 108.061,189.497 108.381,189.497 109.161 M223.859 123.419 L 222.839 124.516 223.935 123.496 C 224.539 122.935,225.032 122.441,225.032 122.399 C 225.032 122.204,224.808 122.399,223.859 123.419 M139.391 150.194 C 139.391 150.406,139.491 150.813,139.613 151.097 C 139.753 151.422,139.835 151.470,139.835 151.226 C 139.835 151.013,139.735 150.606,139.613 150.323 C 139.473 149.997,139.391 149.950,139.391 150.194 M171.391 168.774 C 171.391 168.987,171.491 169.394,171.613 169.677 C 171.753 170.003,171.835 170.050,171.835 169.806 C 171.835 169.594,171.735 169.187,171.613 168.903 C 171.473 168.578,171.391 168.530,171.391 168.774 M143.812 174.452 C 143.812 175.090,143.863 175.352,143.924 175.032 C 143.986 174.713,143.986 174.190,143.924 173.871 C 143.863 173.552,143.812 173.813,143.812 174.452 M143.802 179.097 C 143.802 179.594,143.855 179.797,143.920 179.548 C 143.985 179.300,143.985 178.894,143.920 178.645 C 143.855 178.397,143.802 178.600,143.802 179.097 M176.065 191.097 C 176.068 191.665,176.121 191.866,176.183 191.545 C 176.244 191.224,176.242 190.760,176.177 190.513 C 176.113 190.266,176.062 190.529,176.065 191.097 M176.347 194.968 C 176.347 196.103,176.393 196.536,176.447 195.929 C 176.502 195.322,176.501 194.393,176.446 193.864 C 176.390 193.336,176.346 193.832,176.347 194.968 M176.347 199.355 C 176.347 200.490,176.393 200.923,176.447 200.316 C 176.502 199.709,176.501 198.780,176.446 198.251 C 176.390 197.723,176.346 198.219,176.347 199.355 M251.162 200.129 C 251.165 200.697,251.218 200.899,251.279 200.578 C 251.341 200.257,251.339 199.792,251.274 199.545 C 251.209 199.299,251.159 199.561,251.162 200.129 M164.963 200.516 C 164.963 201.013,165.016 201.216,165.081 200.968 C 165.146 200.719,165.146 200.313,165.081 200.065 C 165.016 199.816,164.963 200.019,164.963 200.516 M176.065 202.968 C 176.068 203.535,176.121 203.737,176.183 203.416 C 176.244 203.095,176.242 202.631,176.177 202.384 C 176.113 202.137,176.062 202.400,176.065 202.968 M218.899 203.613 C 218.899 204.110,218.952 204.313,219.017 204.065 C 219.082 203.816,219.082 203.410,219.017 203.161 C 218.952 202.913,218.899 203.116,218.899 203.613 M218.899 213.935 C 218.899 214.432,218.952 214.635,219.017 214.387 C 219.082 214.139,219.082 213.732,219.017 213.484 C 218.952 213.235,218.899 213.439,218.899 213.935 M270.473 246.258 C 270.532 246.294,270.929 246.613,271.355 246.968 L 272.129 247.613 271.503 246.903 C 271.159 246.513,270.763 246.194,270.622 246.194 C 270.481 246.194,270.414 246.223,270.473 246.258 M243.355 246.532 C 243.355 246.577,243.732 246.954,244.194 247.371 L 245.032 248.129 244.274 247.290 C 243.568 246.509,243.355 246.333,243.355 246.532 M290.567 248.194 L 289.677 249.161 290.645 248.272 C 291.546 247.444,291.732 247.226,291.534 247.226 C 291.491 247.226,291.056 247.661,290.567 248.194 M297.161 250.065 C 297.860 250.774,298.490 251.355,298.561 251.355 C 298.632 251.355,298.118 250.774,297.419 250.065 C 296.720 249.355,296.090 248.774,296.019 248.774 C 295.948 248.774,296.462 249.355,297.161 250.065 M248.834 252.129 C 248.834 252.626,248.887 252.829,248.952 252.581 C 249.017 252.332,249.017 251.926,248.952 251.677 C 248.887 251.429,248.834 251.632,248.834 252.129 M109.221 255.226 C 109.221 255.723,109.274 255.926,109.339 255.677 C 109.404 255.429,109.404 255.023,109.339 254.774 C 109.274 254.526,109.221 254.729,109.221 255.226 M214.180 256.968 L 213.290 257.935 214.258 257.046 C 215.159 256.218,215.344 256.000,215.147 256.000 C 215.104 256.000,214.669 256.435,214.180 256.968 M352.903 257.290 C 353.458 257.858,353.969 258.323,354.040 258.323 C 354.111 258.323,353.716 257.858,353.161 257.290 C 352.607 256.723,352.095 256.258,352.024 256.258 C 351.953 256.258,352.349 256.723,352.903 257.290 M66.182 257.308 C 66.089 257.460,65.762 257.685,65.457 257.808 C 65.079 257.961,65.034 258.037,65.315 258.048 C 65.541 258.057,65.937 257.832,66.194 257.548 C 66.450 257.265,66.591 257.032,66.507 257.032 C 66.422 257.032,66.276 257.157,66.182 257.308 M278.001 259.484 C 278.003 260.052,278.056 260.253,278.118 259.932 C 278.180 259.611,278.177 259.147,278.113 258.900 C 278.048 258.653,277.998 258.916,278.001 259.484 M336.097 259.217 C 336.017 259.426,336.011 259.745,336.084 259.927 C 336.157 260.109,336.226 260.005,336.238 259.696 C 336.249 259.387,336.461 259.082,336.710 259.017 C 337.133 258.906,337.132 258.897,336.702 258.869 C 336.449 258.852,336.176 259.009,336.097 259.217 M168.834 260.129 C 168.834 260.626,168.887 260.829,168.952 260.581 C 169.017 260.332,169.017 259.926,168.952 259.677 C 168.887 259.429,168.834 259.632,168.834 260.129 M342.841 262.707 C 342.749 262.854,342.856 262.895,343.093 262.804 C 343.320 262.718,343.759 262.863,344.074 263.130 L 344.645 263.613 344.154 263.032 C 343.632 262.417,343.101 262.285,342.841 262.707 M172.968 269.698 C 173.216 269.843,173.433 270.217,173.449 270.529 C 173.473 270.984,173.503 271.005,173.600 270.633 C 173.732 270.123,173.266 269.415,172.807 269.427 C 172.647 269.432,172.719 269.553,172.968 269.698 M343.549 270.839 C 343.552 271.406,343.605 271.608,343.666 271.287 C 343.728 270.966,343.726 270.502,343.661 270.255 C 343.597 270.008,343.546 270.271,343.549 270.839 M337.097 273.161 C 337.100 273.729,337.153 273.931,337.215 273.610 C 337.277 273.289,337.274 272.824,337.210 272.578 C 337.145 272.331,337.094 272.594,337.097 273.161 M343.827 275.484 C 343.828 276.477,343.874 276.852,343.930 276.317 C 343.986 275.781,343.985 274.968,343.928 274.510 C 343.871 274.052,343.825 274.490,343.827 275.484 M180.963 276.903 C 180.963 277.400,181.016 277.603,181.081 277.355 C 181.146 277.106,181.146 276.700,181.081 276.452 C 181.016 276.203,180.963 276.406,180.963 276.903 M192.000 276.747 C 192.000 276.803,192.465 276.893,193.032 276.947 C 193.600 277.002,194.065 276.956,194.065 276.846 C 194.065 276.735,193.600 276.645,193.032 276.645 C 192.465 276.645,192.000 276.691,192.000 276.747 M337.103 277.677 C 337.103 278.316,337.153 278.577,337.214 278.258 C 337.276 277.939,337.276 277.416,337.214 277.097 C 337.153 276.777,337.103 277.039,337.103 277.677 M343.830 279.871 C 343.831 281.006,343.877 281.439,343.931 280.832 C 343.986 280.225,343.985 279.296,343.930 278.767 C 343.874 278.239,343.829 278.735,343.830 279.871 M230.363 279.032 C 230.519 279.286,231.268 279.273,231.685 279.009 C 231.888 278.880,231.675 278.807,231.130 278.819 C 230.643 278.830,230.298 278.926,230.363 279.032 M364.710 280.645 C 364.713 281.213,364.766 281.415,364.828 281.094 C 364.889 280.773,364.887 280.308,364.822 280.062 C 364.758 279.815,364.707 280.077,364.710 280.645 M234.344 280.594 C 234.403 280.637,234.800 280.876,235.226 281.126 L 236.000 281.579 235.391 281.048 C 235.056 280.755,234.659 280.516,234.509 280.516 C 234.359 280.516,234.285 280.551,234.344 280.594 M221.131 281.750 C 221.046 282.263,221.083 282.504,221.227 282.360 C 221.357 282.230,221.420 281.849,221.367 281.514 C 221.286 280.997,221.249 281.033,221.131 281.750 M65.487 283.795 C 65.808 283.857,66.272 283.855,66.519 283.790 C 66.766 283.726,66.503 283.675,65.935 283.678 C 65.368 283.681,65.166 283.734,65.487 283.795 M364.457 284.645 C 364.457 285.284,364.508 285.545,364.569 285.226 C 364.631 284.906,364.631 284.384,364.569 284.065 C 364.508 283.745,364.457 284.006,364.457 284.645 M343.549 285.290 C 343.552 285.858,343.605 286.060,343.666 285.739 C 343.728 285.418,343.726 284.953,343.661 284.707 C 343.597 284.460,343.546 284.723,343.549 285.290 M115.975 293.097 C 116.310 293.492,116.722 293.665,117.266 293.639 L 118.065 293.600 117.290 293.488 C 116.865 293.427,116.284 293.183,116.000 292.946 C 115.488 292.520,115.488 292.521,115.975 293.097 M109.355 293.343 C 109.674 293.405,110.197 293.405,110.516 293.343 C 110.835 293.282,110.574 293.232,109.935 293.232 C 109.297 293.232,109.035 293.282,109.355 293.343 M90.663 295.484 C 90.663 296.406,90.710 296.784,90.767 296.323 C 90.825 295.861,90.825 295.106,90.767 294.645 C 90.710 294.184,90.663 294.561,90.663 295.484 M101.484 295.146 C 101.732 295.211,102.139 295.211,102.387 295.146 C 102.635 295.081,102.432 295.028,101.935 295.028 C 101.439 295.028,101.235 295.081,101.484 295.146 M356.509 297.871 L 354.710 299.742 356.581 297.942 C 358.318 296.271,358.569 296.000,358.380 296.000 C 358.341 296.000,357.499 296.842,356.509 297.871 M328.074 297.419 C 328.076 298.129,328.126 298.389,328.185 297.996 C 328.244 297.604,328.243 297.024,328.182 296.706 C 328.120 296.389,328.072 296.710,328.074 297.419 M85.504 298.710 C 85.505 299.703,85.552 300.078,85.608 299.543 C 85.664 299.007,85.663 298.194,85.606 297.736 C 85.549 297.278,85.503 297.716,85.504 298.710 M328.070 299.871 C 328.070 300.510,328.121 300.771,328.182 300.452 C 328.244 300.132,328.244 299.610,328.182 299.290 C 328.121 298.971,328.070 299.232,328.070 299.871 M166.794 301.548 C 166.796 302.542,166.842 302.917,166.898 302.381 C 166.954 301.846,166.953 301.033,166.896 300.575 C 166.839 300.117,166.793 300.555,166.794 301.548 M144.581 300.319 C 145.255 300.372,146.358 300.372,147.032 300.319 C 147.706 300.266,147.155 300.222,145.806 300.222 C 144.458 300.222,143.906 300.266,144.581 300.319 M127.036 301.346 C 127.428 301.406,128.009 301.404,128.326 301.343 C 128.644 301.282,128.323 301.233,127.613 301.235 C 126.903 301.237,126.644 301.287,127.036 301.346 M240.065 305.161 C 240.068 305.729,240.121 305.931,240.183 305.610 C 240.244 305.289,240.242 304.824,240.177 304.578 C 240.113 304.331,240.062 304.594,240.065 305.161 M269.677 310.790 C 269.677 310.835,270.055 311.212,270.516 311.629 L 271.355 312.387 270.597 311.548 C 269.890 310.767,269.677 310.591,269.677 310.790 M98.519 311.408 C 98.840 311.470,99.305 311.468,99.551 311.403 C 99.798 311.339,99.535 311.288,98.968 311.291 C 98.400 311.294,98.198 311.347,98.519 311.408 M138.129 311.669 C 138.519 311.728,139.158 311.728,139.548 311.669 C 139.939 311.610,139.619 311.561,138.839 311.561 C 138.058 311.561,137.739 311.610,138.129 311.669 M133.226 312.178 C 133.474 312.243,133.881 312.243,134.129 312.178 C 134.377 312.113,134.174 312.060,133.677 312.060 C 133.181 312.060,132.977 312.113,133.226 312.178 " stroke="none" fill="#43a7a6" fill-rule="evenodd"></path></g></svg>